<svg enable-background="new 0 0 512 512" viewBox="0 0 512 512" xmlns="http://www.w3.org/2000/svg"><path d="m338.704 84.86c-22.353-8.785-45.89-13.828-69.956-14.992-1.146-.054-2.297-.092-3.446-.128l-.687-.025c-.357-.014-.714-.027-1.074-.036-3.632-.088-7.277-.088-10.92 0-.332.009-.662.022-.993.033l-.71.026c-1.167.037-2.336.075-3.5.13-24.059 1.162-47.594 6.207-69.952 14.991l-10.592 4.162h182.423z" fill="#ffd05c"/><path d="m269.971 69.939c-.409-.023-.815-.052-1.224-.071-1.146-.054-2.297-.092-3.446-.128l-.687-.025c-.357-.014-.714-.027-1.074-.036-3.632-.088-7.277-.088-10.92 0-.332.009-.662.022-.993.033l-.71.026c-1.167.037-2.336.075-3.5.13-24.059 1.162-47.594 6.207-69.952 14.991l-10.592 4.162h23.762l10.592-4.162c21.983-8.637 45.106-13.65 68.744-14.92z" opacity=".1"/><path d="m252.546 19.551v38.254l2.186-.03c2.24-.03 4.465-.03 6.705 0l2.186.03v-38.254c0-3.054-2.486-5.538-5.539-5.538-3.054 0-5.538 2.484-5.538 5.538z" fill="#abb2ba"/><path d="m271.168 65.457-9.837-.138c-2.168-.029-4.327-.029-6.495 0l-9.835.138v-45.906c0-7.213 5.869-13.083 13.083-13.083s13.085 5.869 13.085 13.083v45.906z" fill="#abb2ba"/><path d="m265.373 147.261c1.122-.036 2.244-.072 3.371-.125 24.061-1.162 47.599-6.207 69.958-14.992l10.592-4.162h-182.421l10.592 4.162c22.356 8.785 45.894 13.828 69.96 14.992 1.134.053 2.269.091 3.398.126l.693.027c.376.015.751.029 1.13.038 1.813.044 3.625.067 5.438.067s3.624-.023 5.441-.067c.371-.01.742-.023 1.112-.038z" fill="#ffd05c"/><path d="m201.227 132.143-10.592-4.162h-23.761l10.592 4.162c22.356 8.785 45.894 13.828 69.96 14.992 1.134.053 2.269.091 3.398.126l.693.027c.376.015.751.029 1.13.038 1.813.044 3.625.067 5.438.067s3.624-.023 5.441-.067c.371-.01.742-.023 1.112-.038l.736-.027c1.122-.036 2.244-.072 3.371-.125.409-.02.815-.05 1.222-.071-23.643-1.274-46.764-6.285-68.74-14.922z" opacity=".1"/><path d="m263.622 161.385-.102-2.155-2.435-.002-.349.004c-1.769.022-3.538.022-5.304 0l-.337-.004-.166.001-2.383-.028v208.089h11.076z" fill="#abb2ba"/><path d="m271.168 374.834h-26.167v-223.27l9.949.119.169-.001.407.005c1.694.019 3.408.019 5.12 0l.347-.004 9.723.008.451 9.694v213.45h.001z" fill="#abb2ba"/><path d="m252.55 379.149h11.076v27.754h-11.076z" fill="#2b4b5b"/><path d="m245.005 371.604h26.167v42.844h-26.167z" fill="#2b4b5b"/><path d="m84.005 103.035h59.283 229.592 55.115c4.465 0 8.084-3.618 8.084-8.084s-3.62-8.084-8.084-8.084h-52.944c-29.807-17.206-63.111-27.591-97.416-30.456v-36.86c0-10.78-8.77-19.551-19.551-19.551-10.78 0-19.551 8.771-19.551 19.551v36.86c-34.304 2.865-67.609 13.249-97.416 30.456h-57.112c-4.465 0-8.084 3.618-8.084 8.084s3.618 8.084 8.084 8.084zm170.697-47.416v-36.068c0-1.865 1.517-3.382 3.382-3.382s3.384 1.517 3.384 3.382v36.069c-1.131-.016-2.259-.024-3.384-.024-1.124-.001-2.252.007-3.382.023zm-7.179 16.403c1.143-.054 2.291-.092 3.437-.128.573-.018 1.146-.046 1.72-.06 3.598-.087 7.209-.086 10.807 0 .589.015 1.176.043 1.763.063 1.133.037 2.266.072 3.394.126 23.82 1.151 47.228 6.183 69.271 14.845h-159.662c22.042-8.664 45.449-13.695 69.27-14.846z"/><path d="m427.994 113.968h-55.115-229.592-59.282c-4.465 0-8.084 3.618-8.084 8.084s3.62 8.084 8.084 8.084h57.112c29.809 17.208 63.113 27.591 97.416 30.456v212.623 39.61c0 .887.149 1.739.413 2.537l-77.293 83.043c-3.042 3.267-2.859 8.383.41 11.426 1.558 1.45 3.533 2.167 5.506 2.167 2.165 0 4.327-.866 5.919-2.577l76.512-82.203v76.698c0 4.466 3.62 8.084 8.084 8.084 4.466 0 8.084-3.618 8.084-8.084v-76.698l76.512 82.205c1.593 1.712 3.753 2.577 5.92 2.577 1.971 0 3.948-.717 5.505-2.167 3.268-3.042 3.453-8.158.411-11.426l-77.294-83.043c.264-.799.412-1.65.412-2.537v-39.61-27.417c0-4.466-3.618-8.084-8.084-8.084s-8.084 3.618-8.084 8.084v19.334h-6.765v-203.749c.162.002.321-.002.483 0 .966.012 1.933.024 2.9.024s1.934-.012 2.9-.024c.162-.002.321.002.483 0v155.316c0 4.466 3.618 8.084 8.084 8.084s8.084-3.618 8.084-8.084v-156.108c34.303-2.865 67.608-13.249 97.416-30.456h52.944c4.465 0 8.084-3.618 8.084-8.084s-3.62-8.085-8.085-8.085zm-166.527 267.333v23.442h-6.765v-23.442zm7.175-236.319c-1.117.053-2.232.088-3.349.125-.609.02-1.216.05-1.825.065-3.59.087-7.18.087-10.771 0-.599-.015-1.196-.044-1.795-.064-1.125-.037-2.252-.072-3.378-.126-23.819-1.151-47.227-6.183-69.271-14.845h159.659c-22.042 8.661-45.45 13.694-69.27 14.845z"/></svg>